<svg width="184" height="96" viewBox="0 0 184 96" fill="none" xmlns="http://www.w3.org/2000/svg">
<path d="M18.4922 30.2402H20.4922V28.2402H18.4922V30.2402ZM18.4922 33V35H20.4922V33H18.4922ZM5.69531 33H3.69531V35H5.69531V33ZM5.69531 30.2402V28.2402H3.69531V30.2402H5.69531ZM6.36328 7.40625H8.36328V5.40625H6.36328V7.40625ZM6.36328 33V35H8.36328V33H6.36328ZM2.9707 33H0.970703V35H2.9707V33ZM2.9707 7.40625V5.40625H0.970703V7.40625H2.9707ZM16.4922 30.2402V33H20.4922V30.2402H16.4922ZM18.4922 31H5.69531V35H18.4922V31ZM7.69531 33V30.2402H3.69531V33H7.69531ZM5.69531 32.2402H18.4922V28.2402H5.69531V32.2402ZM4.36328 7.40625V33H8.36328V7.40625H4.36328ZM6.36328 31H2.9707V35H6.36328V31ZM4.9707 33V7.40625H0.970703V33H4.9707ZM2.9707 9.40625H6.36328V5.40625H2.9707V9.40625ZM32.2031 9.67383L34.083 10.3566L34.195 10.0483L34.2026 9.72033L32.2031 9.67383ZM23.7305 33V35H25.1319L25.6103 33.6828L23.7305 33ZM20.2676 33L18.3987 32.2876L17.3648 35H20.2676V33ZM30.0234 7.40625V5.40625H28.6454L28.1546 6.69389L30.0234 7.40625ZM32.2559 7.40625L34.2553 7.45275L34.3029 5.40625H32.2559V7.40625ZM39.3047 33L37.4253 33.6841L37.9043 35H39.3047V33ZM30.8145 9.67383L28.815 9.72033L28.8226 10.049L28.9351 10.3579L30.8145 9.67383ZM30.7617 7.40625V5.40625H28.7147L28.7623 7.45275L30.7617 7.40625ZM32.9941 7.40625L34.8621 6.69165L34.3704 5.40625H32.9941V7.40625ZM42.7852 33V35H45.6916L44.6531 32.2854L42.7852 33ZM38.8652 23.5254H40.8652V21.5254H38.8652V23.5254ZM38.8652 26.3027V28.3027H40.8652V26.3027H38.8652ZM24.4863 26.3027H22.4863V28.3027H24.4863V26.3027ZM24.4863 23.5254V21.5254H22.4863V23.5254H24.4863ZM30.3233 8.99102L21.8506 32.3172L25.6103 33.6828L34.083 10.3566L30.3233 8.99102ZM23.7305 31H20.2676V35H23.7305V31ZM22.1364 33.7124L31.8923 8.11861L28.1546 6.69389L18.3987 32.2876L22.1364 33.7124ZM30.0234 9.40625H32.2559V5.40625H30.0234V9.40625ZM30.2564 7.35975L30.2037 9.62733L34.2026 9.72033L34.2553 7.45275L30.2564 7.35975ZM41.1841 32.3159L32.6938 8.98977L28.9351 10.3579L37.4253 33.6841L41.1841 32.3159ZM32.8139 9.62733L32.7612 7.35975L28.7623 7.45275L28.815 9.72033L32.8139 9.62733ZM30.7617 9.40625H32.9941V5.40625H30.7617V9.40625ZM31.1262 8.12085L40.9172 33.7146L44.6531 32.2854L34.8621 6.69165L31.1262 8.12085ZM42.7852 31H39.3047V35H42.7852V31ZM36.8652 23.5254V26.3027H40.8652V23.5254H36.8652ZM38.8652 24.3027H24.4863V28.3027H38.8652V24.3027ZM26.4863 26.3027V23.5254H22.4863V26.3027H26.4863ZM24.4863 25.5254H38.8652V21.5254H24.4863V25.5254ZM65.9004 7.40625H67.9004V5.40625H65.9004V7.40625ZM65.9004 33V35H67.9004V33H65.9004ZM62.4902 33L60.8154 34.0932L61.4073 35H62.4902V33ZM49.6055 13.2598L51.2803 12.1666L47.6055 6.53657V13.2598H49.6055ZM49.6055 33V35H51.6055V33H49.6055ZM46.2129 33H44.2129V35H46.2129V33ZM46.2129 7.40625V5.40625H44.2129V7.40625H46.2129ZM49.6055 7.40625L51.2796 6.31199L50.6875 5.40625H49.6055V7.40625ZM62.543 27.1992L60.8689 28.2935L64.543 33.9144V27.1992H62.543ZM62.543 7.40625V5.40625H60.543V7.40625H62.543ZM63.9004 7.40625V33H67.9004V7.40625H63.9004ZM65.9004 31H62.4902V35H65.9004V31ZM64.165 31.9068L51.2803 12.1666L47.9307 14.3529L60.8154 34.0932L64.165 31.9068ZM47.6055 13.2598V33H51.6055V13.2598H47.6055ZM49.6055 31H46.2129V35H49.6055V31ZM48.2129 33V7.40625H44.2129V33H48.2129ZM46.2129 9.40625H49.6055V5.40625H46.2129V9.40625ZM47.9314 8.50051L60.8689 28.2935L64.2171 26.105L51.2796 6.31199L47.9314 8.50051ZM64.543 27.1992V7.40625H60.543V27.1992H64.543ZM62.543 9.40625H65.9004V5.40625H62.543V9.40625ZM73.4941 33L71.4943 32.9745L71.4685 35H73.4941V33ZM73.5293 30.2402V28.2402H71.5546L71.5295 30.2148L73.5293 30.2402ZM83.4082 29.0977L84.4682 30.7937L84.4799 30.7863L83.4082 29.0977ZM86.1504 25.8633L84.3234 25.0496L84.3202 25.0568L86.1504 25.8633ZM86.5547 15.5098L84.6423 16.0952L84.644 16.1007L86.5547 15.5098ZM85.0078 12.6094L83.4861 13.9073L83.4909 13.9128L83.4957 13.9184L85.0078 12.6094ZM82.5117 10.7988L81.7346 12.6417L81.7425 12.645L82.5117 10.7988ZM73.3887 10.1836H71.3887V12.1836H73.3887V10.1836ZM73.3887 7.40625V5.40625H71.3887V7.40625H73.3887ZM83.7422 8.25L82.9886 10.1026L82.9953 10.1053L83.0021 10.108L83.7422 8.25ZM87.3105 10.6582L85.8565 12.0315L85.8644 12.0398L85.8723 12.048L87.3105 10.6582ZM89.6309 14.4551L87.7504 15.1362L87.7521 15.141L89.6309 14.4551ZM89.6309 25.9863L91.5096 26.6722L91.5113 26.6674L89.6309 25.9863ZM87.293 29.7656L85.8628 28.3675L85.8547 28.3759L87.293 29.7656ZM83.6367 32.1738L84.3609 34.0381L84.369 34.035L83.6367 32.1738ZM75.3047 7.40625H77.3047V5.40625H75.3047V7.40625ZM75.3047 33V35H77.3047V33H75.3047ZM71.9121 33H69.9121V35H71.9121V33ZM71.9121 7.40625V5.40625H69.9121V7.40625H71.9121ZM78.8379 31H73.4941V35H78.8379V31ZM75.494 33.0255L75.5291 30.2657L71.5295 30.2148L71.4943 32.9745L75.494 33.0255ZM73.5293 32.2402H78.8379V28.2402H73.5293V32.2402ZM78.8379 32.2402C80.94 32.2402 82.8557 31.8015 84.4682 30.7937L82.3482 27.4017C81.5232 27.9173 80.3921 28.2402 78.8379 28.2402V32.2402ZM84.4799 30.7863C86.0495 29.7902 87.2193 28.3974 87.9806 26.6698L84.3202 25.0568C83.8628 26.0948 83.2044 26.8582 82.3366 27.409L84.4799 30.7863ZM87.9774 26.677C88.7348 24.9764 89.082 23.0598 89.082 20.9766H85.082C85.082 22.6199 84.8082 23.9611 84.3234 25.0496L87.9774 26.677ZM89.082 20.9766V19.4121H85.082V20.9766H89.082ZM89.082 19.4121C89.082 17.7913 88.888 16.2852 88.4654 14.9188L84.644 16.1007C84.9245 17.0078 85.082 18.1032 85.082 19.4121H89.082ZM88.4671 14.9243C88.0466 13.5509 87.4084 12.3267 86.5199 11.3004L83.4957 13.9184C83.9666 14.4624 84.3596 15.1718 84.6423 16.0952L88.4671 14.9243ZM86.5295 11.3115C85.6418 10.2707 84.5503 9.48157 83.2809 8.95267L81.7425 12.645C82.4419 12.9364 83.0145 13.3543 83.4861 13.9073L86.5295 11.3115ZM83.2888 8.95598C82.0264 8.42364 80.6348 8.18359 79.1543 8.18359V12.1836C80.205 12.1836 81.0517 12.3537 81.7346 12.6417L83.2888 8.95598ZM79.1543 8.18359H73.3887V12.1836H79.1543V8.18359ZM75.3887 10.1836V7.40625H71.3887V10.1836H75.3887ZM73.3887 9.40625H79.1543V5.40625H73.3887V9.40625ZM79.1543 9.40625C80.6033 9.40625 81.8727 9.64867 82.9886 10.1026L84.4958 6.39741C82.846 5.72633 81.0569 5.40625 79.1543 5.40625V9.40625ZM83.0021 10.108C84.1218 10.554 85.0656 11.194 85.8565 12.0315L88.7646 9.28496C87.5633 8.01304 86.1282 7.04757 84.4823 6.39196L83.0021 10.108ZM85.8723 12.048C86.6672 12.8706 87.2984 13.8882 87.7504 15.1362L91.5113 13.774C90.8852 12.0454 89.9695 10.5318 88.7488 9.26844L85.8723 12.048ZM87.7521 15.141C88.1981 16.3625 88.4395 17.7889 88.4395 19.4473H92.4395C92.4395 17.4025 92.1417 15.5008 91.5096 13.7692L87.7521 15.141ZM88.4395 19.4473V20.9766H92.4395V19.4473H88.4395ZM88.4395 20.9766C88.4395 22.6345 88.1982 24.0689 87.7504 25.3052L91.5113 26.6674C92.1416 24.9272 92.4395 23.0218 92.4395 20.9766H88.4395ZM87.7521 25.3004C87.3027 26.5315 86.6689 27.5429 85.8628 28.3676L88.7232 31.1637C89.9561 29.9024 90.8809 28.3943 91.5096 26.6722L87.7521 25.3004ZM85.8547 28.3759C85.0575 29.2009 84.0839 29.8487 82.9045 30.3127L84.369 34.035C86.0489 33.374 87.5128 32.4163 88.7312 31.1554L85.8547 28.3759ZM82.9126 30.3095C81.7613 30.7567 80.413 31 78.8379 31V35C80.8252 35 82.6762 34.6925 84.3609 34.0381L82.9126 30.3095ZM73.3047 7.40625V33H77.3047V7.40625H73.3047ZM75.3047 31H71.9121V35H75.3047V31ZM73.9121 33V7.40625H69.9121V33H73.9121ZM71.9121 9.40625H75.3047V5.40625H71.9121V9.40625ZM95.5371 7.40625V5.40625H93.5371V7.40625H95.5371ZM108.879 8.28516L108.07 10.1141L108.076 10.1167L108.879 8.28516ZM111.92 10.8867L110.206 11.9183L110.213 11.9286L110.219 11.9388L111.92 10.8867ZM112.254 18.3047L110.461 17.4189L110.456 17.4278L112.254 18.3047ZM110.215 20.7656L111.425 22.358L111.428 22.3555L110.215 20.7656ZM107.051 22.2598L106.535 20.3273L106.429 20.3557L106.326 20.3958L107.051 22.2598ZM106.102 22.6289V24.6289H106.477L106.826 24.4929L106.102 22.6289ZM98.1387 22.6289L96.1388 22.6544L96.164 24.6289H98.1387V22.6289ZM98.1035 19.8691V17.8691H96.0779L96.1037 19.8946L98.1035 19.8691ZM107.156 19.2363L108.081 21.0095L108.091 21.0043L108.101 20.9989L107.156 19.2363ZM107.191 10.7988L106.297 12.5877L106.312 12.5953L106.328 12.6027L107.191 10.7988ZM98.9297 10.1836V8.18359H96.9297V10.1836H98.9297ZM98.9297 33V35H100.93V33H98.9297ZM95.5371 33H93.5371V35H95.5371V33ZM110.496 33L108.734 33.9453L109.299 35H110.496V33ZM104.273 21.3984L104.263 19.3985L100.94 19.415L102.511 22.3438L104.273 21.3984ZM107.807 21.3809L109.557 20.4128L108.983 19.375L107.797 19.3809L107.807 21.3809ZM114.117 32.7891H116.117V32.2728L115.867 31.821L114.117 32.7891ZM114.117 33V35H116.117V33H114.117ZM95.5371 9.40625H104.01V5.40625H95.5371V9.40625ZM104.01 9.40625C105.74 9.40625 107.069 9.67141 108.07 10.1141L109.688 6.4562C108.04 5.72702 106.124 5.40625 104.01 5.40625V9.40625ZM108.076 10.1167C109.068 10.5519 109.747 11.1557 110.206 11.9183L113.633 9.85516C112.71 8.32083 111.362 7.19025 109.682 6.45358L108.076 10.1167ZM110.219 11.9388C110.684 12.6903 110.975 13.7049 110.975 15.0879H114.975C114.975 13.1428 114.562 11.3565 113.621 9.83461L110.219 11.9388ZM110.975 15.0879C110.975 15.9777 110.794 16.7434 110.461 17.4189L114.047 19.1905C114.674 17.9207 114.975 16.5419 114.975 15.0879H110.975ZM110.456 17.4278C110.131 18.0954 109.657 18.6757 109.001 19.1757L111.428 22.3555C112.554 21.4962 113.44 20.4359 114.051 19.1815L110.456 17.4278ZM109.005 19.1733C108.362 19.6615 107.553 20.0561 106.535 20.3273L107.566 24.1922C109.01 23.8072 110.31 23.2057 111.425 22.3579L109.005 19.1733ZM106.326 20.3958L105.377 20.7649L106.826 24.4929L107.776 24.1238L106.326 20.3958ZM106.102 20.6289H98.1387V24.6289H106.102V20.6289ZM100.139 22.6034L100.103 19.8437L96.1037 19.8946L96.1388 22.6544L100.139 22.6034ZM98.1035 21.8691H104.115V17.8691H98.1035V21.8691ZM104.115 21.8691C105.552 21.8691 106.907 21.622 108.081 21.0095L106.231 17.4632C105.788 17.6944 105.116 17.8691 104.115 17.8691V21.8691ZM108.101 20.9989C109.209 20.4047 110.111 19.5684 110.726 18.4793L107.243 16.5129C107.037 16.8769 106.72 17.2007 106.211 17.4737L108.101 20.9989ZM110.726 18.4793C111.315 17.4365 111.6 16.2922 111.6 15.0879H107.6C107.6 15.6414 107.474 16.1025 107.243 16.5129L110.726 18.4793ZM111.6 15.0879C111.6 13.8387 111.353 12.6481 110.791 11.5759L107.248 13.4319C107.46 13.8362 107.6 14.3683 107.6 15.0879H111.6ZM110.791 11.5759C110.183 10.4145 109.233 9.55881 108.055 8.99499L106.328 12.6027C106.814 12.8357 107.083 13.1168 107.248 13.4319L110.791 11.5759ZM108.086 9.00997C106.896 8.41529 105.5 8.18359 104.01 8.18359V12.1836C105.122 12.1836 105.846 12.3621 106.297 12.5877L108.086 9.00997ZM104.01 8.18359H98.9297V12.1836H104.01V8.18359ZM96.9297 10.1836V33H100.93V10.1836H96.9297ZM98.9297 31H95.5371V35H98.9297V31ZM97.5371 33V7.40625H93.5371V33H97.5371ZM112.259 32.0547L106.036 20.4531L102.511 22.3438L108.734 33.9453L112.259 32.0547ZM104.283 23.3984L107.817 23.3808L107.797 19.3809L104.263 19.3985L104.283 23.3984ZM106.057 22.3489L112.367 33.7571L115.867 31.821L109.557 20.4128L106.057 22.3489ZM112.117 32.7891V33H116.117V32.7891H112.117ZM114.117 31H110.496V35H114.117V31ZM132.363 7.40625V5.40625H130.363V7.40625H132.363ZM135.738 7.40625H137.738V5.40625H135.738V7.40625ZM131.045 32.4023L131.866 34.2262L131.873 34.2231L131.045 32.4023ZM121.746 32.4023L120.907 34.2178L120.916 34.222L120.925 34.2262L121.746 32.4023ZM118.424 29.5195L116.734 30.5893L116.741 30.6003L118.424 29.5195ZM117.211 7.40625V5.40625H115.211V7.40625H117.211ZM120.568 7.40625H122.568V5.40625H120.568V7.40625ZM123.363 29.959L122.498 31.7621L122.507 31.7665L123.363 29.959ZM129.551 29.959L128.695 28.1515L128.685 28.1559L129.551 29.959ZM132.363 9.40625H135.738V5.40625H132.363V9.40625ZM133.738 7.40625V24.7207H137.738V7.40625H133.738ZM133.738 24.7207C133.738 26.3456 133.379 27.5324 132.793 28.4066L136.117 30.6324C137.242 28.952 137.738 26.9395 137.738 24.7207H133.738ZM132.793 28.4066C132.148 29.3708 131.302 30.0888 130.217 30.5816L131.873 34.2231C133.624 33.4269 135.052 32.2229 136.117 30.6324L132.793 28.4066ZM130.224 30.5785C129.094 31.087 127.847 31.3516 126.457 31.3516V35.3516C128.372 35.3516 130.183 34.9833 131.866 34.2262L130.224 30.5785ZM126.457 31.3516C124.97 31.3516 123.685 31.0815 122.567 30.5785L120.925 34.2262C122.62 34.9888 124.475 35.3516 126.457 35.3516V31.3516ZM122.585 30.5869C121.532 30.1 120.719 29.3919 120.107 28.4388L116.741 30.6003C117.77 32.2019 119.171 33.4157 120.907 34.2178L122.585 30.5869ZM120.114 28.4498C119.556 27.5688 119.211 26.3656 119.211 24.7207H115.211C115.211 26.9195 115.674 28.9156 116.734 30.5893L120.114 28.4498ZM119.211 24.7207V7.40625H115.211V24.7207H119.211ZM117.211 9.40625H120.568V5.40625H117.211V9.40625ZM118.568 7.40625V24.7207H122.568V7.40625H118.568ZM118.568 24.7207C118.568 26.2894 118.856 27.7592 119.567 29.0126L123.046 27.0382C122.773 26.5572 122.568 25.8239 122.568 24.7207H118.568ZM119.567 29.0126C120.256 30.2259 121.242 31.1594 122.498 31.762L124.229 28.1559C123.726 27.9148 123.342 27.5593 123.046 27.0382L119.567 29.0126ZM122.507 31.7665C123.711 32.3368 125.044 32.5918 126.457 32.5918V28.5918C125.526 28.5918 124.797 28.4249 124.219 28.1515L122.507 31.7665ZM126.457 32.5918C127.877 32.5918 129.216 32.3383 130.416 31.762L128.685 28.1559C128.128 28.4234 127.404 28.5918 126.457 28.5918V32.5918ZM130.407 31.7665C131.674 31.1663 132.672 30.233 133.364 29.0126L129.886 27.0382C129.594 27.5522 129.209 27.9079 128.695 28.1515L130.407 31.7665ZM133.364 29.0126C134.076 27.7592 134.363 26.2894 134.363 24.7207H130.363C130.363 25.8239 130.159 26.5572 129.886 27.0382L133.364 29.0126ZM134.363 24.7207V7.40625H130.363V24.7207H134.363ZM143.666 22.9629H141.666V24.9629H143.666V22.9629ZM143.666 20.2031V18.2031H141.666V20.2031H143.666ZM155.514 17.8125L153.736 16.8959L153.73 16.907L153.725 16.9181L155.514 17.8125ZM155.514 12.7676L153.714 13.6401L153.719 13.6511L153.725 13.662L155.514 12.7676ZM153.721 10.9043L152.71 12.6301L152.719 12.6355L152.728 12.6408L153.721 10.9043ZM144.457 10.1836V8.18359H142.457V10.1836H144.457ZM144.457 33V35H146.457V33H144.457ZM141.064 33H139.064V35H141.064V33ZM141.064 7.40625V5.40625H139.064V7.40625H141.064ZM158.449 11.1855L156.722 12.1944L156.727 12.2018L158.449 11.1855ZM155.408 22.0664L156.225 23.892L156.232 23.8891L156.238 23.886L155.408 22.0664ZM150.504 20.9629H143.666V24.9629H150.504V20.9629ZM145.666 22.9629V20.2031H141.666V22.9629H145.666ZM143.666 22.2031H150.504V18.2031H143.666V22.2031ZM150.504 22.2031C152.017 22.2031 153.436 21.9657 154.635 21.3489L152.806 17.7917C152.365 18.0187 151.639 18.2031 150.504 18.2031V22.2031ZM154.635 21.3489C155.794 20.7531 156.718 19.8752 157.303 18.7069L153.725 16.9181C153.559 17.2498 153.288 17.5438 152.806 17.7917L154.635 21.3489ZM157.291 18.7291C157.843 17.6585 158.094 16.4813 158.094 15.2461H154.094C154.094 15.9327 153.957 16.4665 153.736 16.8959L157.291 18.7291ZM158.094 15.2461C158.094 14.062 157.83 12.929 157.303 11.8732L153.725 13.662C153.97 14.153 154.094 14.6724 154.094 15.2461H158.094ZM157.313 11.895C156.745 10.723 155.847 9.81586 154.713 9.16781L152.728 12.6408C153.235 12.9302 153.532 13.2653 153.714 13.6401L157.313 11.895ZM154.732 9.17853C153.507 8.46143 152.05 8.18359 150.504 8.18359V12.1836C151.606 12.1836 152.294 12.3862 152.71 12.6301L154.732 9.17853ZM150.504 8.18359H144.457V12.1836H150.504V8.18359ZM142.457 10.1836V33H146.457V10.1836H142.457ZM144.457 31H141.064V35H144.457V31ZM143.064 33V7.40625H139.064V33H143.064ZM141.064 9.40625H150.504V5.40625H141.064V9.40625ZM150.504 9.40625C152.215 9.40625 153.525 9.70268 154.514 10.1971L156.303 6.61935C154.62 5.77779 152.66 5.40625 150.504 5.40625V9.40625ZM154.514 10.1971C155.535 10.7076 156.244 11.3761 156.722 12.1944L160.176 10.1767C159.271 8.62781 157.953 7.44477 156.303 6.61935L154.514 10.1971ZM156.727 12.2018C157.217 13.0326 157.486 14.016 157.486 15.2109H161.486C161.486 13.3825 161.064 11.6823 160.172 10.1692L156.727 12.2018ZM157.486 15.2109C157.486 16.5685 157.202 17.5981 156.731 18.3882L160.167 20.436C161.079 18.9058 161.486 17.1346 161.486 15.2109H157.486ZM156.731 18.3882C156.266 19.1683 155.578 19.7907 154.578 20.2468L156.238 23.886C157.91 23.1233 159.249 21.9762 160.167 20.436L156.731 18.3882ZM154.591 20.2408C153.581 20.6929 152.242 20.9629 150.504 20.9629V24.9629C152.633 24.9629 154.564 24.6353 156.225 23.892L154.591 20.2408Z" fill="#431567"/>
<path d="M0 87L9.72 41.28H29.088C32.064 41.28 34.656 41.592 36.864 42.216C39.12 42.792 40.968 43.776 42.408 45.168C43.896 46.56 45 48.384 45.72 50.64C46.488 52.896 46.872 55.656 46.872 58.92C46.872 62.424 46.416 65.856 45.504 69.216C44.64 72.576 43.176 75.576 41.112 78.216C39.048 80.856 36.336 82.992 32.976 84.624C29.664 86.208 25.56 87 20.664 87H0ZM19.728 81.96C21.312 81.96 22.704 81.312 23.904 80.016C25.152 78.672 26.208 76.992 27.072 74.976C27.984 72.912 28.728 70.656 29.304 68.208C29.928 65.712 30.408 63.312 30.744 61.008C31.128 58.704 31.392 56.64 31.536 54.816C31.728 52.992 31.824 51.696 31.824 50.928C31.824 49.44 31.512 48.288 30.888 47.472C30.312 46.608 29.28 46.176 27.792 46.176H24.336L16.632 81.96H19.728ZM86.9271 87H70.0791L69.0711 75.552H55.7511L50.6391 87H43.6551L64.8951 41.28H81.9591L86.9271 87ZM58.1271 70.296H68.5671L66.9111 50.712L58.1271 70.296ZM128.728 87H111.88L103.888 53.952L96.8316 87H90.3516L100.072 41.28H117.28L124.84 74.76L131.968 41.28H138.592L128.728 87ZM165.056 54.528C165.2 53.808 165.272 52.824 165.272 51.576C165.272 50.856 165.224 50.16 165.128 49.488C165.032 48.768 164.864 48.144 164.624 47.616C164.384 47.04 164.024 46.608 163.544 46.32C163.064 45.984 162.44 45.816 161.672 45.816C160.808 45.816 160.016 46.008 159.296 46.392C158.576 46.776 157.928 47.28 157.352 47.904C156.824 48.48 156.392 49.176 156.056 49.992C155.768 50.76 155.624 51.576 155.624 52.44C155.624 53.688 155.936 54.648 156.56 55.32C157.232 55.992 158.096 56.544 159.152 56.976C160.208 57.408 161.408 57.768 162.752 58.056C164.096 58.344 165.488 58.68 166.928 59.064C168.128 59.4 169.328 59.832 170.528 60.36C171.728 60.888 172.784 61.608 173.695 62.52C174.656 63.384 175.424 64.536 176 65.976C176.576 67.368 176.864 69.12 176.864 71.232C176.864 74.256 176.264 76.8 175.064 78.864C173.864 80.928 172.208 82.608 170.096 83.904C167.984 85.2 165.464 86.136 162.536 86.712C159.656 87.288 156.512 87.576 153.104 87.576C149.648 87.576 146.816 87.36 144.608 86.928C142.448 86.448 140.744 85.944 139.496 85.416C138.008 84.792 136.904 84.072 136.183 83.256L138.632 73.392H151.304C151.256 73.824 151.208 74.424 151.16 75.192C151.112 75.912 151.088 76.488 151.088 76.92C151.088 77.496 151.16 78.096 151.304 78.72C151.448 79.344 151.664 79.92 151.952 80.448C152.288 80.976 152.744 81.408 153.32 81.744C153.896 82.08 154.616 82.248 155.48 82.248C156.44 82.248 157.28 82.032 158 81.6C158.768 81.168 159.392 80.64 159.872 80.016C160.4 79.344 160.784 78.624 161.024 77.856C161.312 77.04 161.456 76.248 161.456 75.48C161.456 74.424 161.192 73.536 160.664 72.816C160.184 72.096 159.512 71.496 158.648 71.016C157.784 70.488 156.776 70.056 155.624 69.72C154.52 69.336 153.368 68.952 152.168 68.568C151.016 68.232 149.792 67.824 148.496 67.344C147.248 66.864 146.096 66.192 145.04 65.328C143.984 64.464 143.096 63.384 142.376 62.088C141.704 60.744 141.368 59.04 141.368 56.976C141.368 53.904 142.136 51.336 143.672 49.272C145.256 47.16 147.224 45.456 149.576 44.16C151.976 42.864 154.592 41.952 157.424 41.424C160.256 40.848 162.944 40.56 165.488 40.56C168.848 40.56 171.728 40.968 174.128 41.784C176.576 42.552 178.424 43.464 179.672 44.52L177.008 54.528H165.056Z" fill="#E856EB"/>
<path d="M0 87L-0.978139 86.792L-1.23495 88H0V87ZM9.72 41.28V40.28H8.91025L8.74186 41.072L9.72 41.28ZM36.864 42.216L36.592 43.1783L36.6043 43.1818L36.6166 43.1849L36.864 42.216ZM42.408 45.168L41.713 45.887L41.7189 45.8927L41.7248 45.8983L42.408 45.168ZM45.72 50.64L44.7673 50.944L44.7703 50.9532L44.7734 50.9623L45.72 50.64ZM45.504 69.216L44.5388 68.954L44.5355 68.967L45.504 69.216ZM41.112 78.216L41.8998 78.8319L41.8998 78.8319L41.112 78.216ZM32.976 84.624L33.4075 85.5262L33.4129 85.5235L32.976 84.624ZM23.904 80.016L23.1712 79.3355L23.1702 79.3366L23.904 80.016ZM27.072 74.976L26.1573 74.5718L26.1529 74.5821L27.072 74.976ZM29.304 68.208L28.3338 67.9654L28.3306 67.979L29.304 68.208ZM30.744 61.008L29.7576 60.8436L29.7559 60.8536L29.7545 60.8637L30.744 61.008ZM31.536 54.816L30.5415 54.7113L30.5401 54.7243L30.5391 54.7373L31.536 54.816ZM30.888 47.472L30.056 48.0267L30.0739 48.0537L30.0936 48.0794L30.888 47.472ZM24.336 46.176V45.176H23.5284L23.3584 45.9655L24.336 46.176ZM16.632 81.96L15.6544 81.7495L15.3938 82.96H16.632V81.96ZM0.978139 87.208L10.6981 41.4879L8.74186 41.072L-0.978139 86.792L0.978139 87.208ZM9.72 42.28H29.088V40.28H9.72V42.28ZM29.088 42.28C31.9977 42.28 34.4942 42.5854 36.592 43.1783L37.136 41.2537C34.8178 40.5985 32.1303 40.28 29.088 40.28V42.28ZM36.6166 43.1849C38.7319 43.725 40.417 44.6342 41.713 45.887L43.103 44.449C41.519 42.9178 39.5081 41.859 37.1114 41.2471L36.6166 43.1849ZM41.7248 45.8983C43.0691 47.1558 44.0908 48.8242 44.7673 50.944L46.6727 50.336C45.9092 47.9438 44.7229 45.9642 43.0912 44.4377L41.7248 45.8983ZM44.7734 50.9623C45.4957 53.084 45.872 55.728 45.872 58.92H47.872C47.872 55.584 47.4803 52.708 46.6667 50.3177L44.7734 50.9623ZM45.872 58.92C45.872 62.3361 45.4276 65.68 44.5389 68.954L46.4691 69.4779C47.4044 66.032 47.872 62.5119 47.872 58.92H45.872ZM44.5355 68.967C43.7046 72.1983 42.3003 75.0725 40.3242 77.6001L41.8998 78.8319C44.0517 76.0795 45.5754 72.9537 46.4725 69.465L44.5355 68.967ZM40.3242 77.6001C38.3643 80.1069 35.7779 82.1513 32.5391 83.7245L33.4129 85.5235C36.8941 83.8327 39.7317 81.6051 41.8998 78.8319L40.3242 77.6001ZM32.5445 83.7219C29.4044 85.2237 25.4582 86 20.664 86V88C25.6618 88 29.9236 87.1923 33.4075 85.5261L32.5445 83.7219ZM20.664 86H0V88H20.664V86ZM19.728 82.96C21.6242 82.96 23.2726 82.1697 24.6378 80.6954L23.1702 79.3366C22.1354 80.4543 20.9998 80.96 19.728 80.96V82.96ZM24.6368 80.6965C25.9765 79.2537 27.0905 77.4713 27.9911 75.3699L26.1529 74.5821C25.3255 76.5127 24.3275 78.0903 23.1712 79.3355L24.6368 80.6965ZM27.9867 75.3802C28.9263 73.2537 29.6889 70.9384 30.2774 68.437L28.3306 67.979C27.7671 70.3736 27.0417 72.5703 26.1573 74.5718L27.9867 75.3802ZM30.2741 68.4505C30.9054 65.9255 31.3922 63.4926 31.7335 61.1523L29.7545 60.8637C29.4238 63.1314 28.9506 65.4985 28.3339 67.9655L30.2741 68.4505ZM31.7304 61.1724C32.1179 58.8473 32.3861 56.754 32.5329 54.8947L30.5391 54.7373C30.3979 56.526 30.1381 58.5607 29.7576 60.8436L31.7304 61.1724ZM32.5305 54.9207C32.7225 53.0963 32.824 51.7538 32.824 50.928H30.824C30.824 51.6382 30.7335 52.8877 30.5415 54.7113L32.5305 54.9207ZM32.824 50.928C32.824 49.3155 32.4878 47.9178 31.6824 46.8645L30.0936 48.0794C30.5362 48.6582 30.824 49.5645 30.824 50.928H32.824ZM31.7201 46.9173C30.8861 45.6664 29.4582 45.176 27.792 45.176V47.176C29.1018 47.176 29.7379 47.5496 30.056 48.0267L31.7201 46.9173ZM27.792 45.176H24.336V47.176H27.792V45.176ZM23.3584 45.9655L15.6544 81.7495L17.6096 82.1705L25.3136 46.3865L23.3584 45.9655ZM16.632 82.96H19.728V80.96H16.632V82.96ZM86.9271 87V88H88.0416L87.9212 86.892L86.9271 87ZM70.0791 87L69.0829 87.0877L69.1632 88H70.0791V87ZM69.0711 75.552L70.0672 75.4643L69.9869 74.552H69.0711V75.552ZM55.7511 75.552V74.552H55.1024L54.838 75.1443L55.7511 75.552ZM50.6391 87V88H51.2877L51.5522 87.4077L50.6391 87ZM43.6551 87L42.7482 86.5787L42.0879 88H43.6551V87ZM64.8951 41.28V40.28H64.257L63.9882 40.8587L64.8951 41.28ZM81.9591 41.28L82.9532 41.172L82.8563 40.28H81.9591V41.28ZM58.1271 70.296L57.2146 69.8868L56.5826 71.296H58.1271V70.296ZM68.5671 70.296V71.296H69.6552L69.5635 70.2117L68.5671 70.296ZM66.9111 50.712L67.9075 50.6277L67.5816 46.7735L65.9986 50.3028L66.9111 50.712ZM86.9271 86H70.0791V88H86.9271V86ZM71.0752 86.9123L70.0672 75.4643L68.0749 75.6397L69.0829 87.0877L71.0752 86.9123ZM69.0711 74.552H55.7511V76.552H69.0711V74.552ZM54.838 75.1443L49.726 86.5923L51.5522 87.4077L56.6642 75.9597L54.838 75.1443ZM50.6391 86H43.6551V88H50.6391V86ZM44.562 87.4213L65.802 41.7013L63.9882 40.8587L42.7482 86.5787L44.562 87.4213ZM64.8951 42.28H81.9591V40.28H64.8951V42.28ZM80.9649 41.388L85.9329 87.108L87.9212 86.892L82.9532 41.172L80.9649 41.388ZM58.1271 71.296H68.5671V69.296H58.1271V71.296ZM69.5635 70.2117L67.9075 50.6277L65.9146 50.7963L67.5706 70.3803L69.5635 70.2117ZM65.9986 50.3028L57.2146 69.8868L59.0395 70.7052L67.8235 51.1212L65.9986 50.3028ZM128.728 87V88H129.535L129.705 87.2109L128.728 87ZM111.88 87L110.908 87.2351L111.093 88H111.88V87ZM103.888 53.952L104.86 53.7169L102.91 53.7432L103.888 53.952ZM96.8316 87V88H97.6406L97.8095 87.2088L96.8316 87ZM90.3516 87L89.3734 86.792L89.1166 88H90.3516V87ZM100.072 41.28V40.28H99.2618L99.0934 41.072L100.072 41.28ZM117.28 41.28L118.255 41.0597L118.079 40.28H117.28V41.28ZM124.84 74.76L123.864 74.9803L125.818 74.9682L124.84 74.76ZM131.968 41.28V40.28H131.158L130.989 41.0718L131.968 41.28ZM138.592 41.28L139.569 41.4909L139.83 40.28H138.592V41.28ZM128.728 86H111.88V88H128.728V86ZM112.852 86.7649L104.86 53.7169L102.916 54.1871L110.908 87.2351L112.852 86.7649ZM102.91 53.7432L95.8536 86.7912L97.8095 87.2088L104.866 54.1608L102.91 53.7432ZM96.8316 86H90.3516V88H96.8316V86ZM91.3297 87.208L101.05 41.4879L99.0934 41.072L89.3734 86.792L91.3297 87.208ZM100.072 42.28H117.28V40.28H100.072V42.28ZM116.304 41.5003L123.864 74.9803L125.815 74.5397L118.255 41.0597L116.304 41.5003ZM125.818 74.9682L132.946 41.4882L130.989 41.0718L123.861 74.5518L125.818 74.9682ZM131.968 42.28H138.592V40.28H131.968V42.28ZM137.614 41.0691L127.75 86.7891L129.705 87.2109L139.569 41.4909L137.614 41.0691ZM165.056 54.528L164.075 54.3319L163.836 55.528H165.056V54.528ZM165.128 49.488L164.136 49.6202L164.138 49.6294L165.128 49.488ZM164.624 47.616L163.7 48.0006L163.707 48.0153L163.713 48.0298L164.624 47.616ZM163.544 46.32L162.97 47.1392L162.999 47.1594L163.029 47.1775L163.544 46.32ZM159.296 46.392L159.766 47.2744L159.766 47.2744L159.296 46.392ZM157.352 47.904L156.617 47.2257L156.614 47.2283L157.352 47.904ZM156.056 49.992L155.131 49.6113L155.125 49.626L155.119 49.6409L156.056 49.992ZM156.56 55.32L155.827 56.0004L155.839 56.014L155.852 56.0271L156.56 55.32ZM159.152 56.976L158.773 57.9015L158.773 57.9015L159.152 56.976ZM162.752 58.056L162.542 59.0338L162.542 59.0338L162.752 58.056ZM166.928 59.064L167.197 58.101L167.185 58.0978L166.928 59.064ZM170.528 60.36L170.125 61.2753L170.125 61.2753L170.528 60.36ZM173.695 62.52L172.988 63.2271L173.007 63.2457L173.027 63.2633L173.695 62.52ZM176 65.976L175.071 66.3474L175.075 66.3584L176 65.976ZM175.064 78.864L175.928 79.3666L175.928 79.3666L175.064 78.864ZM170.096 83.904L169.572 83.0517L169.572 83.0517L170.096 83.904ZM162.536 86.712L162.342 85.7308L162.339 85.7314L162.536 86.712ZM144.608 86.928L144.391 87.9042L144.403 87.9069L144.415 87.9094L144.608 86.928ZM139.496 85.416L139.885 84.495L139.882 84.4938L139.496 85.416ZM136.183 83.256L135.213 83.0151L135.087 83.5243L135.434 83.9176L136.183 83.256ZM138.632 73.392V72.392H137.849L137.661 73.1511L138.632 73.392ZM151.304 73.392L152.297 73.5024L152.421 72.392H151.304V73.392ZM151.16 75.192L152.157 75.2585L152.158 75.2544L151.16 75.192ZM151.304 78.72L150.329 78.9449L150.329 78.9449L151.304 78.72ZM151.952 80.448L151.074 80.9269L151.09 80.9564L151.108 80.9849L151.952 80.448ZM153.32 81.744L152.816 82.6078L152.816 82.6078L153.32 81.744ZM158 81.6L157.509 80.7284L157.497 80.7353L157.485 80.7425L158 81.6ZM159.872 80.016L159.085 79.3981L159.079 79.4063L159.872 80.016ZM161.024 77.856L160.081 77.5232L160.074 77.5403L160.069 77.5577L161.024 77.856ZM160.664 72.816L159.831 73.3707L159.844 73.3893L159.857 73.4074L160.664 72.816ZM158.648 71.016L158.126 71.8693L158.144 71.8801L158.162 71.8902L158.648 71.016ZM155.624 69.72L155.295 70.6645L155.319 70.6729L155.344 70.68L155.624 69.72ZM152.168 68.568L152.472 67.6156L152.46 67.6116L152.448 67.608L152.168 68.568ZM148.496 67.344L148.136 68.2774L148.148 68.2817L148.496 67.344ZM145.04 65.328L145.673 64.554L145.673 64.554L145.04 65.328ZM142.376 62.088L141.481 62.5352L141.491 62.5546L141.501 62.5736L142.376 62.088ZM143.672 49.272L142.871 48.672L142.869 48.675L143.672 49.272ZM149.576 44.16L149.1 43.2801L149.093 43.2842L149.576 44.16ZM157.424 41.424L157.607 42.4071L157.615 42.4056L157.623 42.4039L157.424 41.424ZM174.128 41.784L173.806 42.7308L173.817 42.7346L173.828 42.7381L174.128 41.784ZM179.672 44.52L180.638 44.7772L180.801 44.1655L180.317 43.7566L179.672 44.52ZM177.008 54.528V55.528H177.776L177.974 54.7852L177.008 54.528ZM166.036 54.7241C166.199 53.9102 166.272 52.851 166.272 51.576H164.272C164.272 52.797 164.2 53.7058 164.075 54.3319L166.036 54.7241ZM166.272 51.576C166.272 50.8115 166.221 50.0681 166.117 49.3466L164.138 49.6294C164.226 50.2518 164.272 50.9005 164.272 51.576H166.272ZM166.119 49.3558C166.013 48.5619 165.823 47.8388 165.534 47.2022L163.713 48.0298C163.904 48.4492 164.05 48.9741 164.136 49.6202L166.119 49.3558ZM165.547 47.2314C165.234 46.4819 164.742 45.873 164.058 45.4625L163.029 47.1775C163.305 47.343 163.533 47.5981 163.7 48.0006L165.547 47.2314ZM164.117 45.5008C163.424 45.0154 162.581 44.816 161.672 44.816V46.816C162.298 46.816 162.703 46.9526 162.97 47.1392L164.117 45.5008ZM161.672 44.816C160.653 44.816 159.698 45.0438 158.825 45.5096L159.766 47.2744C160.333 46.9721 160.962 46.816 161.672 46.816V44.816ZM158.825 45.5096C158.002 45.9485 157.266 46.5228 156.617 47.2257L158.086 48.5823C158.589 48.0372 159.149 47.6035 159.766 47.2744L158.825 45.5096ZM156.614 47.2283C155.997 47.9013 155.506 48.7006 155.131 49.6113L156.98 50.3727C157.277 49.6514 157.65 49.0587 158.089 48.5797L156.614 47.2283ZM155.119 49.6409C154.787 50.5271 154.624 51.4626 154.624 52.44H156.624C156.624 51.6894 156.748 50.9929 156.992 50.3431L155.119 49.6409ZM154.624 52.44C154.624 53.848 154.977 55.0854 155.827 56.0004L157.292 54.6395C156.894 54.2106 156.624 53.528 156.624 52.44H154.624ZM155.852 56.0271C156.635 56.8098 157.618 57.4291 158.773 57.9015L159.53 56.0505C158.573 55.6589 157.828 55.1742 157.267 54.6129L155.852 56.0271ZM158.773 57.9015C159.893 58.3599 161.151 58.7358 162.542 59.0338L162.961 57.0782C161.664 56.8002 160.522 56.4561 159.53 56.0505L158.773 57.9015ZM162.542 59.0338C163.869 59.3181 165.244 59.6501 166.67 60.0302L167.185 58.0978C165.731 57.7099 164.322 57.3699 162.961 57.0782L162.542 59.0338ZM166.658 60.027C167.81 60.3496 168.966 60.7653 170.125 61.2753L170.93 59.4447C169.689 58.8987 168.445 58.4504 167.197 58.101L166.658 60.027ZM170.125 61.2753C171.213 61.7542 172.166 62.4042 172.988 63.2271L174.403 61.8129C173.401 60.8118 172.242 60.0218 170.93 59.4447L170.125 61.2753ZM173.027 63.2633C173.852 64.0063 174.541 65.0214 175.071 66.3474L176.928 65.6046C176.306 64.0506 175.459 62.7617 174.364 61.7767L173.027 63.2633ZM175.075 66.3584C175.585 67.5909 175.864 69.2022 175.864 71.232H177.864C177.864 69.0378 177.566 67.1451 176.924 65.5936L175.075 66.3584ZM175.864 71.232C175.864 74.1258 175.29 76.4856 174.199 78.3614L175.928 79.3666C177.237 77.1144 177.864 74.3862 177.864 71.232H175.864ZM174.199 78.3614C173.085 80.2768 171.549 81.8388 169.572 83.0517L170.619 84.7563C172.866 83.3772 174.642 81.5792 175.928 79.3666L174.199 78.3614ZM169.572 83.0517C167.58 84.2742 165.177 85.1732 162.342 85.7308L162.729 87.6932C165.75 87.0988 168.387 86.1258 170.619 84.7563L169.572 83.0517ZM162.339 85.7314C159.533 86.2926 156.456 86.576 153.104 86.576V88.576C156.567 88.576 159.778 88.2834 162.732 87.6926L162.339 85.7314ZM153.104 86.576C149.682 86.576 146.92 86.3615 144.8 85.9466L144.415 87.9094C146.711 88.3585 149.613 88.576 153.104 88.576V86.576ZM144.824 85.9518C142.692 85.4778 141.054 84.9894 139.885 84.495L139.106 86.337C140.433 86.8986 142.203 87.4182 144.391 87.9042L144.824 85.9518ZM139.882 84.4938C138.472 83.9023 137.517 83.256 136.933 82.5944L135.434 83.9176C136.29 84.888 137.543 85.6817 139.109 86.3382L139.882 84.4938ZM137.154 83.4969L139.602 73.6329L137.661 73.1511L135.213 83.0151L137.154 83.4969ZM138.632 74.392H151.304V72.392H138.632V74.392ZM150.31 73.2816C150.259 73.7372 150.21 74.3557 150.161 75.1296L152.158 75.2544C152.205 74.4923 152.252 73.9108 152.297 73.5024L150.31 73.2816ZM150.162 75.1255C150.113 75.8551 150.088 76.4561 150.088 76.92H152.088C152.088 76.5199 152.11 75.9689 152.157 75.2585L150.162 75.1255ZM150.088 76.92C150.088 77.5796 150.17 78.2552 150.329 78.9449L152.278 78.4951C152.149 77.9368 152.088 77.4124 152.088 76.92H150.088ZM150.329 78.9449C150.492 79.6518 150.739 80.314 151.074 80.9269L152.829 79.9691C152.588 79.526 152.403 79.0362 152.278 78.4951L150.329 78.9449ZM151.108 80.9849C151.535 81.6561 152.111 82.1969 152.816 82.6078L153.823 80.8802C153.376 80.6191 153.04 80.2959 152.795 79.9111L151.108 80.9849ZM152.816 82.6078C153.583 83.0557 154.49 83.248 155.48 83.248V81.248C154.741 81.248 154.208 81.1043 153.823 80.8802L152.816 82.6078ZM155.48 83.248C156.594 83.248 157.617 82.9955 158.514 82.4575L157.485 80.7425C156.942 81.0685 156.285 81.248 155.48 81.248V83.248ZM158.49 82.4716C159.361 81.9814 160.093 81.3685 160.664 80.6257L159.079 79.4063C158.69 79.9115 158.174 80.3546 157.509 80.7284L158.49 82.4716ZM160.658 80.6338C161.256 79.8724 161.7 79.0452 161.978 78.1543L160.069 77.5577C159.867 78.2028 159.543 78.8156 159.085 79.3982L160.658 80.6338ZM161.966 78.1888C162.287 77.2793 162.456 76.3748 162.456 75.48H160.456C160.456 76.1212 160.336 76.8007 160.081 77.5232L161.966 78.1888ZM162.456 75.48C162.456 74.2513 162.145 73.1458 161.47 72.2246L159.857 73.4074C160.238 73.9261 160.456 74.5966 160.456 75.48H162.456ZM161.496 72.2613C160.915 71.391 160.116 70.6881 159.133 70.1418L158.162 71.8902C158.907 72.3039 159.452 72.801 159.831 73.3707L161.496 72.2613ZM159.169 70.1627C158.217 69.5811 157.125 69.1163 155.904 68.76L155.344 70.68C156.426 70.9957 157.35 71.3949 158.126 71.8693L159.169 70.1627ZM155.952 68.7755C154.84 68.3886 153.68 68.0019 152.472 67.6156L151.863 69.5204C153.055 69.9021 154.199 70.2834 155.295 70.6645L155.952 68.7755ZM152.448 67.608C151.321 67.2795 150.12 66.8792 148.843 66.4063L148.148 68.2817C149.463 68.7688 150.71 69.1845 151.888 69.528L152.448 67.608ZM148.854 66.4107C147.708 65.9696 146.648 65.3521 145.673 64.554L144.406 66.102C145.543 67.0319 146.787 67.7584 148.137 68.2773L148.854 66.4107ZM145.673 64.554C144.723 63.7767 143.914 62.7975 143.25 61.6024L141.501 62.5736C142.277 63.9705 143.244 65.1513 144.406 66.102L145.673 64.554ZM143.27 61.6408C142.688 60.4776 142.368 58.9396 142.368 56.976H140.368C140.368 59.1404 140.719 61.0104 141.481 62.5352L143.27 61.6408ZM142.368 56.976C142.368 54.0761 143.09 51.7289 144.474 49.869L142.869 48.675C141.181 50.9431 140.368 53.7319 140.368 56.976H142.368ZM144.471 49.872C145.969 47.8754 147.828 46.2646 150.058 45.0358L149.093 43.2842C146.619 44.6474 144.542 46.4446 142.872 48.672L144.471 49.872ZM150.051 45.0399C152.354 43.7959 154.871 42.9171 157.607 42.4071L157.24 40.4409C154.312 40.9869 151.597 41.9321 149.1 43.2801L150.051 45.0399ZM157.623 42.4039C160.398 41.8395 163.019 41.56 165.488 41.56V39.56C162.868 39.56 160.113 39.8565 157.224 40.4441L157.623 42.4039ZM165.488 41.56C168.771 41.56 171.537 41.9594 173.806 42.7308L174.449 40.8372C171.918 39.9766 168.924 39.56 165.488 39.56V41.56ZM173.828 42.7381C176.213 43.4865 177.92 44.3483 179.026 45.2834L180.317 43.7566C178.927 42.5797 176.938 41.6175 174.427 40.8299L173.828 42.7381ZM178.705 44.2628L176.041 54.2708L177.974 54.7852L180.638 44.7772L178.705 44.2628ZM177.008 53.528H165.056V55.528H177.008V53.528Z" fill="black"/>
</svg>
